# xmcd
#
# Track frame offsets:
#	200
#	12415
#	29142
#	43000
#	54275
#	66027
#	75770
#	88577
#	96797
#	109100
#
# Disc length: 1631 seconds
#
# Revision: 2
# Processed by: cddbd v1.4PL0 Copyright (c) Steve Scherf et al.
# Submitted via: EasyCDDAExtractor 4.5.0.2
#
DISCID=73065d0a
DTITLE=Ricky Skaggs and Tony Rice - Skaggs and Rice
DYEAR=1989
DGENRE=Bluegrass
TTITLE0=Bury Me Beneath the Weeping Willow
TTITLE1=Mansions for Me
TTITLE2=There's More Pretty Girls Than One
TTITLE3=Memories of Mother and Dad
TTITLE4=Where the Soul of Man Never Dies
TTITLE5=Talk About Suffering
TTITLE6=Will the Roses Bloom
TTITLE7=Tennessee Blues
TTITLE8=The Old Crossroads
TTITLE9=Have You Someone In Heaven Awaiting
EXTD=
EXTT0=Traditional, arr. Skaggs and Rice\n
EXTT1=B. Monroe\n
EXTT2=Traditional, arr. Skaggs and Rice\n
EXTT3=A. Price\n
EXTT4=Traditional, arr. Skaggs and Rice\n
EXTT5=Traditional, arr. Skaggs and Rice\n
EXTT6=I. and J. Bevins\n
EXTT7=B. Monroe\n
EXTT8=C. Monroe\n
EXTT9=R. and C. Stanley\n
PLAYORDER=
